<?xml version="1.0" standalone="no"?>
<!DOCTYPE svg PUBLIC "-//W3C//DTD SVG 20010904//EN"
 "http://www.w3.org/TR/2001/REC-SVG-20010904/DTD/svg10.dtd">
<svg version="1.0" xmlns="http://www.w3.org/2000/svg"
 width="225.000000pt" height="225.000000pt" viewBox="0 0 225.000000 225.000000"
 preserveAspectRatio="xMidYMid meet">

<g transform="translate(0.000000,225.000000) scale(0.100000,-0.100000)"
fill="#000000" stroke="none">
<path d="M63 2105 c-66 -28 -63 14 -63 -914 0 -822 0 -841 20 -895 14 -35 35
-68 62 -91 82 -75 7 -70 1043 -70 1036 0 961 -5 1043 70 27 23 48 56 62 91 19
53 20 74 20 765 0 627 -2 715 -16 744 -20 44 -32 48 -144 55 l-95 5 -3 90 c-1
50 -7 100 -14 112 -28 54 -1 53 -980 53 -747 -1 -909 -3 -935 -15z m1827 -862
c0 -500 4 -791 10 -815 14 -50 61 -88 109 -88 73 0 85 55 21 95 l-40 25 0 650
0 650 80 0 80 0 -2 -712 -3 -713 -23 -33 c-52 -72 16 -67 -997 -67 -1013 0
-945 -5 -997 67 l-23 33 -3 830 c-1 456 0 835 3 842 3 10 186 13 895 13 l890
0 0 -777z"/>
<path d="M322 1798 c-17 -17 -15 -54 4 -72 14 -14 89 -16 673 -16 625 0 659 1
674 18 21 23 22 46 1 66 -14 14 -89 16 -678 16 -501 0 -665 -3 -674 -12z"/>
<path d="M340 1553 c-8 -3 -18 -11 -22 -17 -4 -6 -8 -136 -8 -288 0 -238 2
-279 16 -292 13 -14 54 -16 288 -16 252 0 274 1 289 18 15 16 17 52 17 295 0
274 0 276 -22 291 -19 14 -62 16 -283 15 -143 0 -267 -3 -275 -6z m480 -303
l0 -200 -205 0 -205 0 0 200 0 200 205 0 205 0 0 -200z"/>
<path d="M1104 1550 c-29 -11 -36 -45 -16 -70 16 -20 26 -20 302 -18 l285 3
10 29 c8 24 6 31 -14 47 -21 18 -42 19 -285 18 -143 0 -271 -4 -282 -9z"/>
<path d="M1086 1279 c-8 -12 -12 -29 -9 -38 14 -39 28 -41 303 -41 224 0 269
2 288 16 26 18 28 46 6 68 -13 14 -54 16 -294 16 -273 0 -279 0 -294 -21z"/>
<path d="M1098 1038 c-24 -20 -28 -44 -12 -67 15 -21 21 -21 294 -21 240 0
281 2 294 16 22 22 20 50 -6 68 -19 14 -64 16 -288 16 -198 0 -270 -3 -282
-12z"/>
<path d="M322 778 c-14 -14 -15 -47 -2 -68 8 -13 53 -15 283 -18 258 -3 275
-2 298 17 20 16 22 23 14 47 l-10 29 -286 3 c-213 2 -288 -1 -297 -10z"/>
<path d="M1087 770 c-19 -28 -10 -59 20 -71 13 -5 141 -9 283 -9 238 0 260 1
281 19 20 16 22 23 14 47 l-10 29 -287 3 c-280 2 -287 2 -301 -18z"/>
<path d="M326 524 c-19 -18 -21 -55 -4 -72 9 -9 87 -12 289 -12 239 0 280 2
293 16 21 21 20 47 -2 67 -16 15 -51 17 -290 17 -233 0 -273 -2 -286 -16z"/>
<path d="M1098 528 c-24 -20 -28 -44 -12 -67 15 -21 21 -21 294 -21 240 0 281
2 294 16 21 21 20 47 -2 67 -16 15 -51 17 -288 17 -201 0 -274 -3 -286 -12z"/>
</g>
</svg>
